<svg width="145" height="44" viewBox="0 0 145 44" fill="none" xmlns="http://www.w3.org/2000/svg">
<rect x="0.5" y="0.5" width="144" height="43" rx="4.5" fill="#0C0D10" stroke="#5F6368"/>
<path d="M94.7713 21.2076V23.4781H93.2513V24.9664H94.7713V30.0224C94.7713 31.7494 95.6055 32.4402 97.7036 32.4402C98.0727 32.4402 98.4236 32.3985 98.7308 32.3487V30.8767C98.4673 30.9021 98.3009 30.9184 98.0108 30.9184C97.0721 30.9184 96.6583 30.5069 96.6583 29.5703V24.9654H98.7308V23.4781H96.6583V21.2076H94.7703H94.7713ZM104.076 32.5631C106.868 32.5631 108.581 30.8117 108.581 27.9094C108.581 25.0243 106.86 23.2638 104.077 23.2638C101.284 23.2638 99.5639 25.0233 99.5639 27.9094C99.5639 30.8117 101.276 32.5621 104.076 32.5621V32.5631ZM104.076 30.9925C102.434 30.9925 101.513 29.8659 101.513 27.9094C101.513 25.969 102.434 24.8343 104.077 24.8343C105.709 24.8343 106.64 25.969 106.64 27.9094C106.64 29.8578 105.71 30.9925 104.077 30.9925H104.076ZM110.046 32.3904H111.934V27.1038C111.934 25.8451 112.943 24.9989 114.375 24.9989C114.708 24.9989 115.271 25.0558 115.428 25.1055V23.3623C115.151 23.3099 114.869 23.2851 114.586 23.2882C113.338 23.2882 112.276 23.9302 112.004 24.8099H111.864V23.4365H110.046V32.3904ZM120.115 24.7683C121.512 24.7683 122.425 25.6815 122.468 27.0865H117.64C117.745 25.6897 118.719 24.7683 120.115 24.7683ZM122.46 29.9726C122.109 30.6715 121.327 31.0586 120.186 31.0586C118.675 31.0586 117.701 30.063 117.64 28.4925V28.3939H124.392V27.7773C124.392 24.9654 122.785 23.2638 120.124 23.2638C117.428 23.2638 115.716 25.0812 115.716 27.9419C115.716 30.8036 117.393 32.5631 120.133 32.5631C122.319 32.5631 123.848 31.5767 124.277 29.9726H122.46ZM82.3905 29.0837C82.5367 31.2821 84.4929 32.688 87.406 32.688C90.5175 32.688 92.4652 31.215 92.4652 28.8622C92.4652 27.0134 91.3559 25.9904 88.6615 25.4022L87.214 25.07C85.5031 24.6941 84.8119 24.1923 84.8119 23.3146C84.8119 22.2073 85.886 21.4829 87.4967 21.4829C89.0252 21.4829 90.0812 22.19 90.2721 23.3227H92.2561C92.1377 21.2523 90.19 19.7956 87.5233 19.7956C84.6572 19.7956 82.7457 21.2523 82.7457 23.4426C82.7457 25.2488 83.8295 26.3226 86.2039 26.8427L87.8967 27.2257C89.6353 27.6097 90.3991 28.1715 90.3991 29.1091C90.3991 30.2002 89.198 30.9925 87.5596 30.9925C85.8039 30.9925 84.5836 30.2509 84.4119 29.0837H82.3905ZM62.8353 23.2882C61.5361 23.2882 60.4119 23.8977 59.8327 24.9166H59.6919V23.4365H57.8743V35.3659H59.7623V31.0332H59.9116C60.4129 31.9789 61.4924 32.5377 62.8535 32.5377C65.2673 32.5377 66.8044 30.7538 66.8044 27.9094C66.8044 25.0649 65.2684 23.2882 62.8364 23.2882H62.8353ZM62.2999 30.9509C60.7191 30.9509 59.7271 29.7836 59.7271 27.9175C59.7271 26.0432 60.7191 24.8749 62.3084 24.8749C63.9063 24.8749 64.8641 26.0178 64.8641 27.9094C64.8641 29.809 63.9063 30.9509 62.2999 30.9509ZM73.4092 23.2882C72.11 23.2882 70.9868 23.8977 70.4065 24.9166H70.2668V23.4365H68.4492V35.3659H70.3372V31.0332H70.4865C70.9868 31.9789 72.0663 32.5377 73.4273 32.5377C75.8423 32.5377 77.3783 30.7538 77.3783 27.9094C77.3783 25.0649 75.8423 23.2882 73.4103 23.2882H73.4092ZM72.8737 30.9509C71.294 30.9509 70.302 29.7836 70.302 27.9175C70.302 26.0432 71.294 24.8749 72.8833 24.8749C74.4812 24.8749 75.438 26.0178 75.438 27.9094C75.438 29.809 74.4812 30.9509 72.8737 30.9509ZM54.4876 32.3904H56.6529L51.9127 20.0932H49.7185L44.9772 32.3904H47.0711L48.2807 29.1264H53.2865L54.4876 32.3904ZM50.7116 22.3261H50.8652L52.7671 27.5243H48.7991L50.7105 22.3261H50.7116ZM34.7351 22.2977C34.7575 20.6327 35.7121 19.057 37.2279 18.1854C36.2721 16.9075 34.6711 16.0968 33.006 16.048C31.2289 15.8733 29.5073 17.0436 28.6017 17.0436C27.6791 17.0436 26.286 16.0653 24.7852 16.0948C22.8289 16.1537 21.006 17.1949 20.0535 18.797C18.0076 22.1128 19.534 26.9869 21.4935 29.6678C22.4748 30.9803 23.6204 32.4473 25.1201 32.3955C26.5868 32.3386 27.1351 31.5188 28.9057 31.5188C30.6604 31.5188 31.1745 32.3955 32.7031 32.3619C34.2785 32.3386 35.2705 31.0433 36.2167 29.7186C36.9193 28.7854 37.4612 27.7515 37.822 26.6558C35.9724 25.9223 34.7372 24.1791 34.7351 22.2977ZM31.8455 14.2855C32.702 13.3261 33.1257 12.0831 33.0241 10.8275C31.7179 10.9544 30.5084 11.5409 29.6321 12.4722C29.2098 12.9236 28.8854 13.4502 28.6776 14.0215C28.4699 14.5928 28.3828 15.1977 28.4215 15.8012C29.0743 15.8053 29.7201 15.6715 30.3121 15.4094C30.9042 15.1473 31.4279 14.7635 31.8455 14.2855Z" fill="white"/>
<path opacity="0.5" d="M48.6847 15.8642C48.2244 15.8642 47.8281 15.7555 47.4957 15.5382C47.1634 15.3209 46.9077 15.0215 46.7287 14.6401C46.5497 14.2587 46.4602 13.823 46.4602 13.3329C46.4602 12.8343 46.5518 12.3944 46.7351 12.013C46.9205 11.6294 47.1783 11.3301 47.5085 11.1149C47.8409 10.8976 48.2287 10.7889 48.6719 10.7889C49.017 10.7889 49.3281 10.8528 49.6051 10.9807C49.8821 11.1085 50.109 11.2875 50.2859 11.5176C50.4627 11.7477 50.5724 12.0162 50.6151 12.323H49.8608C49.8033 12.0993 49.6754 11.9011 49.4773 11.7285C49.2813 11.5538 49.017 11.4664 48.6847 11.4664C48.3906 11.4664 48.1328 11.5432 47.9112 11.6966C47.6918 11.8478 47.5202 12.062 47.3967 12.339C47.2752 12.6138 47.2145 12.9366 47.2145 13.3074C47.2145 13.6866 47.2741 14.0169 47.3935 14.2981C47.5149 14.5794 47.6854 14.7978 47.9048 14.9533C48.1264 15.1088 48.3864 15.1866 48.6847 15.1866C48.8807 15.1866 49.0586 15.1525 49.2184 15.0843C49.3782 15.0162 49.5135 14.9182 49.6243 14.7903C49.7351 14.6625 49.8139 14.5091 49.8608 14.3301H50.6151C50.5724 14.6199 50.467 14.8809 50.2987 15.1131C50.1325 15.3432 49.9119 15.5265 49.6371 15.6628C49.3643 15.7971 49.0469 15.8642 48.6847 15.8642ZM53.712 15.8642C53.2688 15.8642 52.88 15.7587 52.5455 15.5478C52.2131 15.3368 51.9531 15.0417 51.7656 14.6625C51.5803 14.2832 51.4876 13.84 51.4876 13.3329C51.4876 12.8216 51.5803 12.3752 51.7656 11.9938C51.9531 11.6124 52.2131 11.3162 52.5455 11.1053C52.88 10.8944 53.2688 10.7889 53.712 10.7889C54.1552 10.7889 54.543 10.8944 54.8754 11.1053C55.2099 11.3162 55.4698 11.6124 55.6552 11.9938C55.8427 12.3752 55.9364 12.8216 55.9364 13.3329C55.9364 13.84 55.8427 14.2832 55.6552 14.6625C55.4698 15.0417 55.2099 15.3368 54.8754 15.5478C54.543 15.7587 54.1552 15.8642 53.712 15.8642ZM53.712 15.1866C54.0487 15.1866 54.3256 15.1003 54.543 14.9277C54.7603 14.7552 54.9212 14.5282 55.0256 14.247C55.13 13.9657 55.1822 13.661 55.1822 13.3329C55.1822 13.0048 55.13 12.699 55.0256 12.4157C54.9212 12.1323 54.7603 11.9032 54.543 11.7285C54.3256 11.5538 54.0487 11.4664 53.712 11.4664C53.3754 11.4664 53.0984 11.5538 52.881 11.7285C52.6637 11.9032 52.5028 12.1323 52.3984 12.4157C52.294 12.699 52.2418 13.0048 52.2418 13.3329C52.2418 13.661 52.294 13.9657 52.3984 14.247C52.5028 14.5282 52.6637 14.7552 52.881 14.9277C53.0984 15.1003 53.3754 15.1866 53.712 15.1866ZM57.0878 15.7619V10.8528H57.8165V11.6199H57.8804C57.9827 11.3578 58.1478 11.1543 58.3758 11.0094C58.6038 10.8624 58.8776 10.7889 59.1972 10.7889C59.521 10.7889 59.7906 10.8624 60.0058 11.0094C60.2231 11.1543 60.3925 11.3578 60.5139 11.6199H60.5651C60.6908 11.3663 60.8794 11.165 61.1308 11.0158C61.3822 10.8645 61.6837 10.7889 62.0352 10.7889C62.4742 10.7889 62.8332 10.9263 63.1123 11.2012C63.3914 11.4739 63.531 11.899 63.531 12.4764V15.7619H62.7767V12.4764C62.7767 12.1142 62.6776 11.8553 62.4795 11.6998C62.2813 11.5442 62.048 11.4664 61.7796 11.4664C61.4344 11.4664 61.167 11.5709 60.9774 11.7797C60.7877 11.9863 60.6929 12.2484 60.6929 12.5659V15.7619H59.9259V12.3997C59.9259 12.1206 59.8353 11.8958 59.6542 11.7253C59.4731 11.5527 59.2398 11.4664 58.9543 11.4664C58.7583 11.4664 58.575 11.5186 58.4046 11.6231C58.2362 11.7275 58.0999 11.8723 57.9955 12.0577C57.8932 12.241 57.8421 12.453 57.8421 12.6937V15.7619H57.0878ZM64.9101 15.7619V10.8528H65.6643V15.7619H64.9101ZM65.2936 10.0346C65.1466 10.0346 65.0198 9.98456 64.9133 9.88442C64.8089 9.78427 64.7567 9.66389 64.7567 9.52327C64.7567 9.38264 64.8089 9.26226 64.9133 9.16211C65.0198 9.06197 65.1466 9.0119 65.2936 9.0119C65.4406 9.0119 65.5663 9.06197 65.6707 9.16211C65.7773 9.26226 65.8305 9.38264 65.8305 9.52327C65.8305 9.66389 65.7773 9.78427 65.6707 9.88442C65.5663 9.98456 65.4406 10.0346 65.2936 10.0346ZM67.8001 12.8088V15.7619H67.0458V10.8528H67.7745V11.6199H67.8384C67.9535 11.3706 68.1282 11.1703 68.3626 11.019C68.5969 10.8656 68.8995 10.7889 69.2702 10.7889C69.6026 10.7889 69.8935 10.8571 70.1428 10.9934C70.392 11.1277 70.5859 11.3322 70.7244 11.6071C70.8629 11.8798 70.9322 12.225 70.9322 12.6426V15.7619H70.1779V12.6937C70.1779 12.3081 70.0778 12.0076 69.8775 11.7924C69.6772 11.5751 69.4023 11.4664 69.0529 11.4664C68.8121 11.4664 68.5969 11.5186 68.4073 11.6231C68.2198 11.7275 68.0717 11.8798 67.9631 12.0801C67.8544 12.2804 67.8001 12.5233 67.8001 12.8088ZM74.292 17.7051C73.9276 17.7051 73.6144 17.6582 73.3524 17.5645C73.0903 17.4728 72.8719 17.3514 72.6972 17.2001C72.5246 17.051 72.3872 16.8912 72.2849 16.7207L72.8857 16.2988C72.9539 16.3883 73.0402 16.4906 73.1446 16.6057C73.249 16.7228 73.3918 16.824 73.5729 16.9093C73.7561 16.9966 73.9958 17.0403 74.292 17.0403C74.6883 17.0403 75.0154 16.9444 75.2732 16.7527C75.531 16.5609 75.6599 16.2605 75.6599 15.8514V14.8542H75.596C75.5406 14.9437 75.4617 15.0545 75.3595 15.1866C75.2593 15.3166 75.1144 15.4327 74.9248 15.535C74.7373 15.6351 74.4838 15.6852 74.1642 15.6852C73.7678 15.6852 73.412 15.5914 73.0967 15.4039C72.7835 15.2164 72.5352 14.9437 72.352 14.5858C72.1709 14.2278 72.0803 13.7932 72.0803 13.2818C72.0803 12.7789 72.1688 12.3411 72.3456 11.9682C72.5225 11.5932 72.7686 11.3034 73.0839 11.0989C73.3992 10.8922 73.7636 10.7889 74.1769 10.7889C74.4965 10.7889 74.7501 10.8422 74.9376 10.9487C75.1272 11.0531 75.2721 11.1724 75.3722 11.3066C75.4745 11.4387 75.5534 11.5474 75.6088 11.6326H75.6855V10.8528H76.4142V15.9025C76.4142 16.3244 76.3183 16.6674 76.1265 16.9316C75.9369 17.198 75.6812 17.3929 75.3595 17.5165C75.0399 17.6422 74.684 17.7051 74.292 17.7051ZM74.2664 15.0076C74.569 15.0076 74.8247 14.9384 75.0335 14.7999C75.2423 14.6614 75.401 14.4622 75.5097 14.2022C75.6183 13.9423 75.6727 13.6312 75.6727 13.269C75.6727 12.9153 75.6194 12.6032 75.5129 12.3326C75.4063 12.062 75.2487 11.85 75.0399 11.6966C74.8311 11.5432 74.5732 11.4664 74.2664 11.4664C73.9468 11.4664 73.6805 11.5474 73.4674 11.7093C73.2565 11.8713 73.0977 12.0886 72.9912 12.3613C72.8868 12.6341 72.8346 12.9366 72.8346 13.269C72.8346 13.6099 72.8879 13.9114 72.9944 14.1735C73.1031 14.4334 73.2629 14.638 73.4738 14.7871C73.6869 14.9341 73.9511 15.0076 74.2664 15.0076ZM83.8034 11.9522L83.1258 12.144C83.0832 12.0311 83.0203 11.9213 82.9372 11.8148C82.8563 11.7061 82.7455 11.6167 82.6048 11.5463C82.4642 11.476 82.2842 11.4409 82.0647 11.4409C81.7643 11.4409 81.5139 11.5101 81.3137 11.6486C81.1155 11.785 81.0164 11.9586 81.0164 12.1696C81.0164 12.3571 81.0846 12.5052 81.221 12.6138C81.3573 12.7225 81.5704 12.813 81.8602 12.8855L82.5889 13.0645C83.0278 13.171 83.3548 13.334 83.57 13.5535C83.7852 13.7708 83.8928 14.051 83.8928 14.394C83.8928 14.6753 83.8119 14.9267 83.6499 15.1483C83.4901 15.3699 83.2664 15.5446 82.9788 15.6724C82.6911 15.8003 82.3566 15.8642 81.9752 15.8642C81.4745 15.8642 81.0601 15.7555 80.732 15.5382C80.4039 15.3209 80.1961 15.0034 80.1088 14.5858L80.8247 14.4068C80.8928 14.671 81.0218 14.8691 81.2114 15.0012C81.4031 15.1334 81.6535 15.1994 81.9624 15.1994C82.314 15.1994 82.5931 15.1248 82.7998 14.9757C83.0086 14.8244 83.113 14.6433 83.113 14.4324C83.113 14.2619 83.0534 14.1191 82.934 14.0041C82.8147 13.8869 82.6315 13.7995 82.3843 13.742L81.5661 13.5503C81.1166 13.4437 80.7863 13.2786 80.5754 13.0549C80.3666 12.829 80.2622 12.5467 80.2622 12.2079C80.2622 11.9309 80.3399 11.6859 80.4955 11.4728C80.6531 11.2598 80.8673 11.0925 81.1379 10.9711C81.4106 10.8496 81.7195 10.7889 82.0647 10.7889C82.5505 10.7889 82.9319 10.8954 83.2089 11.1085C83.488 11.3216 83.6862 11.6028 83.8034 11.9522ZM87.0225 15.8642C86.5794 15.8642 86.1905 15.7587 85.856 15.5478C85.5236 15.3368 85.2637 15.0417 85.0762 14.6625C84.8908 14.2832 84.7981 13.84 84.7981 13.3329C84.7981 12.8216 84.8908 12.3752 85.0762 11.9938C85.2637 11.6124 85.5236 11.3162 85.856 11.1053C86.1905 10.8944 86.5794 10.7889 87.0225 10.7889C87.4657 10.7889 87.8535 10.8944 88.1859 11.1053C88.5204 11.3162 88.7804 11.6124 88.9657 11.9938C89.1532 12.3752 89.247 12.8216 89.247 13.3329C89.247 13.84 89.1532 14.2832 88.9657 14.6625C88.7804 15.0417 88.5204 15.3368 88.1859 15.5478C87.8535 15.7587 87.4657 15.8642 87.0225 15.8642ZM87.0225 15.1866C87.3592 15.1866 87.6362 15.1003 87.8535 14.9277C88.0708 14.7552 88.2317 14.5282 88.3361 14.247C88.4405 13.9657 88.4927 13.661 88.4927 13.3329C88.4927 13.0048 88.4405 12.699 88.3361 12.4157C88.2317 12.1323 88.0708 11.9032 87.8535 11.7285C87.6362 11.5538 87.3592 11.4664 87.0225 11.4664C86.6859 11.4664 86.4089 11.5538 86.1916 11.7285C85.9743 11.9032 85.8134 12.1323 85.709 12.4157C85.6046 12.699 85.5524 13.0048 85.5524 13.3329C85.5524 13.661 85.6046 13.9657 85.709 14.247C85.8134 14.5282 85.9743 14.7552 86.1916 14.9277C86.4089 15.1003 86.6859 15.1866 87.0225 15.1866ZM92.3927 15.8642C91.9495 15.8642 91.5606 15.7587 91.2261 15.5478C90.8937 15.3368 90.6338 15.0417 90.4463 14.6625C90.2609 14.2832 90.1682 13.84 90.1682 13.3329C90.1682 12.8216 90.2609 12.3752 90.4463 11.9938C90.6338 11.6124 90.8937 11.3162 91.2261 11.1053C91.5606 10.8944 91.9495 10.7889 92.3927 10.7889C92.8358 10.7889 93.2236 10.8944 93.556 11.1053C93.8905 11.3162 94.1505 11.6124 94.3358 11.9938C94.5233 12.3752 94.6171 12.8216 94.6171 13.3329C94.6171 13.84 94.5233 14.2832 94.3358 14.6625C94.1505 15.0417 93.8905 15.3368 93.556 15.5478C93.2236 15.7587 92.8358 15.8642 92.3927 15.8642ZM92.3927 15.1866C92.7293 15.1866 93.0063 15.1003 93.2236 14.9277C93.441 14.7552 93.6018 14.5282 93.7062 14.247C93.8106 13.9657 93.8628 13.661 93.8628 13.3329C93.8628 13.0048 93.8106 12.699 93.7062 12.4157C93.6018 12.1323 93.441 11.9032 93.2236 11.7285C93.0063 11.5538 92.7293 11.4664 92.3927 11.4664C92.056 11.4664 91.779 11.5538 91.5617 11.7285C91.3444 11.9032 91.1835 12.1323 91.0791 12.4157C90.9747 12.699 90.9225 13.0048 90.9225 13.3329C90.9225 13.661 90.9747 13.9657 91.0791 14.247C91.1835 14.5282 91.3444 14.7552 91.5617 14.9277C91.779 15.1003 92.056 15.1866 92.3927 15.1866ZM96.5227 12.8088V15.7619H95.7685V10.8528H96.4972V11.6199H96.5611C96.6761 11.3706 96.8509 11.1703 97.0852 11.019C97.3196 10.8656 97.6222 10.7889 97.9929 10.7889C98.3253 10.7889 98.6161 10.8571 98.8654 10.9934C99.1147 11.1277 99.3086 11.3322 99.4471 11.6071C99.5856 11.8798 99.6548 12.225 99.6548 12.6426V15.7619H98.9006V12.6937C98.9006 12.3081 98.8004 12.0076 98.6001 11.7924C98.3999 11.5751 98.125 11.4664 97.7756 11.4664C97.5348 11.4664 97.3196 11.5186 97.13 11.6231C96.9425 11.7275 96.7944 11.8798 96.6857 12.0801C96.5771 12.2804 96.5227 12.5233 96.5227 12.8088ZM105.559 15.8642C105.116 15.8642 104.727 15.7587 104.392 15.5478C104.06 15.3368 103.8 15.0417 103.612 14.6625C103.427 14.2832 103.334 13.84 103.334 13.3329C103.334 12.8216 103.427 12.3752 103.612 11.9938C103.8 11.6124 104.06 11.3162 104.392 11.1053C104.727 10.8944 105.116 10.7889 105.559 10.7889C106.002 10.7889 106.39 10.8944 106.722 11.1053C107.057 11.3162 107.316 11.6124 107.502 11.9938C107.689 12.3752 107.783 12.8216 107.783 13.3329C107.783 13.84 107.689 14.2832 107.502 14.6625C107.316 15.0417 107.057 15.3368 106.722 15.5478C106.39 15.7587 106.002 15.8642 105.559 15.8642ZM105.559 15.1866C105.895 15.1866 106.172 15.1003 106.39 14.9277C106.607 14.7552 106.768 14.5282 106.872 14.247C106.977 13.9657 107.029 13.661 107.029 13.3329C107.029 13.0048 106.977 12.699 106.872 12.4157C106.768 12.1323 106.607 11.9032 106.39 11.7285C106.172 11.5538 105.895 11.4664 105.559 11.4664C105.222 11.4664 104.945 11.5538 104.728 11.7285C104.51 11.9032 104.35 12.1323 104.245 12.4157C104.141 12.699 104.089 13.0048 104.089 13.3329C104.089 13.661 104.141 13.9657 104.245 14.247C104.35 14.5282 104.51 14.7552 104.728 14.9277C104.945 15.1003 105.222 15.1866 105.559 15.1866ZM109.689 12.8088V15.7619H108.934V10.8528H109.663V11.6199H109.727C109.842 11.3706 110.017 11.1703 110.251 11.019C110.486 10.8656 110.788 10.7889 111.159 10.7889C111.491 10.7889 111.782 10.8571 112.031 10.9934C112.281 11.1277 112.475 11.3322 112.613 11.6071C112.752 11.8798 112.821 12.225 112.821 12.6426V15.7619H112.067V12.6937C112.067 12.3081 111.966 12.0076 111.766 11.7924C111.566 11.5751 111.291 11.4664 110.942 11.4664C110.701 11.4664 110.486 11.5186 110.296 11.6231C110.108 11.7275 109.96 11.8798 109.852 12.0801C109.743 12.2804 109.689 12.5233 109.689 12.8088Z" fill="white"/>
</svg>
