<svg width="145" height="44" viewBox="0 0 145 44" fill="none" xmlns="http://www.w3.org/2000/svg">
<rect x="0.5" y="0.5" width="144" height="43" rx="4.5" fill="#0C0D10" stroke="#5F6368"/>
<path d="M72.624 23.8383C70.3161 23.8383 68.4348 25.7175 68.4348 28.3043C68.4348 30.876 70.3161 32.7703 72.624 32.7703C74.9318 32.7703 76.8132 30.8749 76.8132 28.3043C76.8121 25.7175 74.9308 23.8383 72.624 23.8383ZM72.624 31.0127C71.3586 31.0127 70.2688 29.896 70.2688 28.3054C70.2688 26.6975 71.3597 25.598 72.624 25.598C73.8883 25.598 74.9781 26.6975 74.9781 28.3054C74.9781 29.8949 73.8883 31.0127 72.6229 31.0127H72.624ZM63.4841 23.8383C61.1763 23.8383 59.2949 25.7175 59.2949 28.3043C59.2949 30.876 61.1763 32.7703 63.4841 32.7703C65.7931 32.7703 67.6734 30.8749 67.6734 28.3043C67.6734 25.7175 65.7931 23.8383 63.4841 23.8383ZM63.4841 31.0127C62.2198 31.0127 61.13 29.896 61.13 28.3054C61.13 26.6975 62.2209 25.598 63.4841 25.598C64.7495 25.598 65.8394 26.6975 65.8394 28.3054C65.8394 29.8949 64.7495 31.0127 63.4841 31.0127ZM52.6148 25.2092V27.1035H56.8514C56.7254 28.1697 56.3937 28.9472 55.8875 29.4878C55.2715 30.1469 54.3066 30.8749 52.6148 30.8749C50.0064 30.8749 47.9678 28.6241 47.9678 25.8338C47.9678 23.0424 50.0064 20.7927 52.6148 20.7927C54.0223 20.7927 55.0486 21.3851 55.8078 22.1464L57.0571 20.8089C55.9974 19.7266 54.5909 18.8984 52.6148 18.8984C49.0426 18.8984 46.0391 22.0107 46.0391 25.8338C46.0391 29.6569 49.0426 32.7692 52.6148 32.7692C54.5424 32.7692 55.9984 32.0907 57.1357 30.8232C58.3052 29.5718 58.6692 27.8121 58.6692 26.3917C58.6692 25.9523 58.6369 25.5463 58.5734 25.2071H52.6148V25.2092ZM97.0701 26.6803C96.7234 25.682 95.6637 23.8372 93.498 23.8372C91.3484 23.8372 89.5618 25.6475 89.5618 28.3032C89.5618 30.8071 91.3323 32.7692 93.7037 32.7692C95.6163 32.7692 96.7223 31.5167 97.1821 30.7898L95.7584 29.7743C95.2846 30.5184 94.6363 31.0095 93.7037 31.0095C92.7711 31.0095 92.1066 30.5518 91.6801 29.6558L97.2608 27.1864L97.0712 26.6803H97.0701ZM91.3797 28.1686C91.3334 26.4423 92.6289 25.5635 93.5626 25.5635C94.2895 25.5635 94.9055 25.9534 95.1112 26.5112L91.3797 28.1697V28.1686ZM86.8437 32.4989H88.6766V19.3744H86.8437V32.5V32.4989ZM83.8391 24.8366H83.7766C83.3652 24.3111 82.5748 23.8372 81.5797 23.8372C79.4926 23.8372 77.58 25.8004 77.58 28.3215C77.58 30.8243 79.4926 32.7692 81.5797 32.7692C82.5758 32.7692 83.3652 32.2964 83.7766 31.7558H83.8391V32.3987C83.8391 34.1067 82.9861 35.02 81.6109 35.02C80.4888 35.02 79.7931 34.1584 79.5088 33.4304L77.9117 34.1412C78.3704 35.3247 79.5874 36.7797 81.6109 36.7797C83.7605 36.7797 85.5794 35.426 85.5794 32.1274V24.1107H83.8401V24.8377L83.8391 24.8366ZM81.738 31.0117C80.4726 31.0117 79.414 29.8777 79.414 28.3215C79.414 26.7471 80.4726 25.5969 81.738 25.5969C82.9861 25.5969 83.9661 26.7471 83.9661 28.3215C83.9661 29.8777 82.9861 31.0117 81.7369 31.0117H81.738ZM105.661 19.3734H101.273V32.5H103.104V27.5278H105.66C107.689 27.5278 109.684 25.9555 109.684 23.4517C109.684 20.9467 107.69 19.3744 105.661 19.3744V19.3734ZM105.707 25.6992H103.103V21.1998H105.707C107.076 21.1998 107.853 22.4124 107.853 23.4506C107.853 24.4661 107.076 25.6992 105.707 25.6992ZM117.022 23.8146C115.697 23.8146 114.325 24.4392 113.756 25.8241L115.381 26.55C115.728 25.8241 116.376 25.5872 117.054 25.5872C118.001 25.5872 118.963 26.1946 118.979 27.2747V27.4104C118.397 27.0785 117.739 26.9041 117.07 26.9043C115.319 26.9043 113.534 27.9349 113.534 29.8594C113.534 31.6158 114.971 32.7466 116.58 32.7466C117.811 32.7466 118.489 32.1554 118.916 31.4629H118.978V32.4752H120.746V27.4427C120.747 25.1144 119.12 23.8135 117.022 23.8135V23.8146ZM116.8 31.0084C116.203 31.0084 115.365 30.6864 115.365 29.8927C115.365 28.8804 116.407 28.4917 117.307 28.4917C118.111 28.4917 118.49 28.6769 118.979 28.93C118.837 30.1469 117.859 31.0084 116.8 31.0084ZM127.185 24.1011L125.086 29.7926H125.023L122.845 24.1011H120.872L124.14 32.0552L122.277 36.4792H124.186L129.221 24.1011H127.185ZM110.694 32.5H112.525V19.3744H110.694V32.5Z" fill="white"/>
<g filter="url(#filter0_ii_697_21)">
<path d="M16.0081 8.91539C15.7227 9.23847 15.5547 9.74031 15.5547 10.3908V33.6125C15.5547 34.2629 15.7227 34.7637 16.0081 35.0879L16.0813 35.1632L28.2365 22.154V21.8482L16.0813 8.83893L16.0081 8.91431V8.91539Z" fill="url(#paint0_linear_697_21)"/>
<path d="M32.2897 26.4919L28.2383 22.154V21.8482L32.2907 17.5114L32.3823 17.5674L37.1832 20.4859C38.5541 21.3194 38.5541 22.6828 37.1832 23.5185L32.3823 26.437L32.2907 26.4919H32.2897Z" fill="url(#paint1_linear_697_21)"/>
<g filter="url(#filter1_i_697_21)">
<path d="M32.3803 26.4369L28.2363 22L16.0078 35.0868C16.4601 35.5994 17.2064 35.6629 18.0475 35.1514L32.3814 26.4358L32.3803 26.4369Z" fill="url(#paint2_linear_697_21)"/>
</g>
<path d="M32.3803 17.5663L18.0464 8.8508C17.2064 8.33926 16.4601 8.40387 16.0078 8.91541L28.2363 22.0022L32.3803 17.5653V17.5663Z" fill="url(#paint3_linear_697_21)"/>
</g>
<path opacity="0.5" d="M48.6847 15.1023C48.2244 15.1023 47.8281 14.9936 47.4957 14.7763C47.1634 14.5589 46.9077 14.2596 46.7287 13.8782C46.5497 13.4968 46.4602 13.0611 46.4602 12.571C46.4602 12.0724 46.5518 11.6325 46.7351 11.2511C46.9205 10.8675 47.1783 10.5682 47.5085 10.353C47.8409 10.1357 48.2287 10.027 48.6719 10.027C49.017 10.027 49.3281 10.0909 49.6051 10.2188C49.8821 10.3466 50.109 10.5256 50.2859 10.7557C50.4627 10.9858 50.5724 11.2543 50.6151 11.5611H49.8608C49.8033 11.3374 49.6754 11.1392 49.4773 10.9666C49.2813 10.7919 49.017 10.7045 48.6847 10.7045C48.3906 10.7045 48.1328 10.7812 47.9112 10.9347C47.6918 11.0859 47.5202 11.3001 47.3967 11.5771C47.2752 11.8519 47.2145 12.1747 47.2145 12.5455C47.2145 12.9247 47.2741 13.255 47.3935 13.5362C47.5149 13.8175 47.6854 14.0359 47.9048 14.1914C48.1264 14.3469 48.3864 14.4247 48.6847 14.4247C48.8807 14.4247 49.0586 14.3906 49.2184 14.3224C49.3782 14.2543 49.5135 14.1562 49.6243 14.0284C49.7351 13.9006 49.8139 13.7472 49.8608 13.5682H50.6151C50.5724 13.858 50.467 14.119 50.2987 14.3512C50.1325 14.5813 49.9119 14.7646 49.6371 14.9009C49.3643 15.0352 49.0469 15.1023 48.6847 15.1023ZM53.712 15.1023C53.2688 15.1023 52.88 14.9968 52.5455 14.7859C52.2131 14.5749 51.9531 14.2798 51.7656 13.9006C51.5803 13.5213 51.4876 13.0781 51.4876 12.571C51.4876 12.0597 51.5803 11.6133 51.7656 11.2319C51.9531 10.8505 52.2131 10.5543 52.5455 10.3434C52.88 10.1325 53.2688 10.027 53.712 10.027C54.1552 10.027 54.543 10.1325 54.8754 10.3434C55.2099 10.5543 55.4698 10.8505 55.6552 11.2319C55.8427 11.6133 55.9364 12.0597 55.9364 12.571C55.9364 13.0781 55.8427 13.5213 55.6552 13.9006C55.4698 14.2798 55.2099 14.5749 54.8754 14.7859C54.543 14.9968 54.1552 15.1023 53.712 15.1023ZM53.712 14.4247C54.0487 14.4247 54.3256 14.3384 54.543 14.1658C54.7603 13.9933 54.9212 13.7663 55.0256 13.4851C55.13 13.2038 55.1822 12.8991 55.1822 12.571C55.1822 12.2429 55.13 11.9371 55.0256 11.6538C54.9212 11.3704 54.7603 11.1413 54.543 10.9666C54.3256 10.7919 54.0487 10.7045 53.712 10.7045C53.3754 10.7045 53.0984 10.7919 52.881 10.9666C52.6637 11.1413 52.5028 11.3704 52.3984 11.6538C52.294 11.9371 52.2418 12.2429 52.2418 12.571C52.2418 12.8991 52.294 13.2038 52.3984 13.4851C52.5028 13.7663 52.6637 13.9933 52.881 14.1658C53.0984 14.3384 53.3754 14.4247 53.712 14.4247ZM57.0878 15V10.0909H57.8165V10.858H57.8804C57.9827 10.5959 58.1478 10.3924 58.3758 10.2475C58.6038 10.1005 58.8776 10.027 59.1972 10.027C59.521 10.027 59.7906 10.1005 60.0058 10.2475C60.2231 10.3924 60.3925 10.5959 60.5139 10.858H60.5651C60.6908 10.6044 60.8794 10.4031 61.1308 10.2539C61.3822 10.1026 61.6837 10.027 62.0352 10.027C62.4742 10.027 62.8332 10.1644 63.1123 10.4393C63.3914 10.712 63.531 11.1371 63.531 11.7145V15H62.7767V11.7145C62.7767 11.3523 62.6776 11.0934 62.4795 10.9379C62.2813 10.7823 62.048 10.7045 61.7796 10.7045C61.4344 10.7045 61.167 10.8089 60.9774 11.0178C60.7877 11.2244 60.6929 11.4865 60.6929 11.804V15H59.9259V11.6378C59.9259 11.3587 59.8353 11.1339 59.6542 10.9634C59.4731 10.7908 59.2398 10.7045 58.9543 10.7045C58.7583 10.7045 58.575 10.7567 58.4046 10.8612C58.2362 10.9656 58.0999 11.1104 57.9955 11.2958C57.8932 11.479 57.8421 11.6911 57.8421 11.9318V15H57.0878ZM64.9101 15V10.0909H65.6643V15H64.9101ZM65.2936 9.27273C65.1466 9.27273 65.0198 9.22266 64.9133 9.12251C64.8089 9.02237 64.7567 8.90199 64.7567 8.76136C64.7567 8.62074 64.8089 8.50036 64.9133 8.40021C65.0198 8.30007 65.1466 8.25 65.2936 8.25C65.4406 8.25 65.5663 8.30007 65.6707 8.40021C65.7773 8.50036 65.8305 8.62074 65.8305 8.76136C65.8305 8.90199 65.7773 9.02237 65.6707 9.12251C65.5663 9.22266 65.4406 9.27273 65.2936 9.27273ZM67.8001 12.0469V15H67.0458V10.0909H67.7745V10.858H67.8384C67.9535 10.6087 68.1282 10.4084 68.3626 10.2571C68.5969 10.1037 68.8995 10.027 69.2702 10.027C69.6026 10.027 69.8935 10.0952 70.1428 10.2315C70.392 10.3658 70.5859 10.5703 70.7244 10.8452C70.8629 11.1179 70.9322 11.4631 70.9322 11.8807V15H70.1779V11.9318C70.1779 11.5462 70.0778 11.2457 69.8775 11.0305C69.6772 10.8132 69.4023 10.7045 69.0529 10.7045C68.8121 10.7045 68.5969 10.7567 68.4073 10.8612C68.2198 10.9656 68.0717 11.1179 67.9631 11.3182C67.8544 11.5185 67.8001 11.7614 67.8001 12.0469ZM74.292 16.9432C73.9276 16.9432 73.6144 16.8963 73.3524 16.8026C73.0903 16.7109 72.8719 16.5895 72.6972 16.4382C72.5246 16.2891 72.3872 16.1293 72.2849 15.9588L72.8857 15.5369C72.9539 15.6264 73.0402 15.7287 73.1446 15.8438C73.249 15.9609 73.3918 16.0621 73.5729 16.1474C73.7561 16.2347 73.9958 16.2784 74.292 16.2784C74.6883 16.2784 75.0154 16.1825 75.2732 15.9908C75.531 15.799 75.6599 15.4986 75.6599 15.0895V14.0923H75.596C75.5406 14.1818 75.4617 14.2926 75.3595 14.4247C75.2593 14.5547 75.1144 14.6708 74.9248 14.7731C74.7373 14.8732 74.4838 14.9233 74.1642 14.9233C73.7678 14.9233 73.412 14.8295 73.0967 14.642C72.7835 14.4545 72.5352 14.1818 72.352 13.8239C72.1709 13.4659 72.0803 13.0312 72.0803 12.5199C72.0803 12.017 72.1688 11.5792 72.3456 11.2063C72.5225 10.8313 72.7686 10.5415 73.0839 10.337C73.3992 10.1303 73.7636 10.027 74.1769 10.027C74.4965 10.027 74.7501 10.0803 74.9376 10.1868C75.1272 10.2912 75.2721 10.4105 75.3722 10.5447C75.4745 10.6768 75.5534 10.7855 75.6088 10.8707H75.6855V10.0909H76.4142V15.1406C76.4142 15.5625 76.3183 15.9055 76.1265 16.1697C75.9369 16.4361 75.6812 16.631 75.3595 16.7546C75.0399 16.8803 74.684 16.9432 74.292 16.9432ZM74.2664 14.2457C74.569 14.2457 74.8247 14.1765 75.0335 14.038C75.2423 13.8995 75.401 13.7003 75.5097 13.4403C75.6183 13.1804 75.6727 12.8693 75.6727 12.5071C75.6727 12.1534 75.6194 11.8413 75.5129 11.5707C75.4063 11.3001 75.2487 11.0881 75.0399 10.9347C74.8311 10.7812 74.5732 10.7045 74.2664 10.7045C73.9468 10.7045 73.6805 10.7855 73.4674 10.9474C73.2565 11.1094 73.0977 11.3267 72.9912 11.5994C72.8868 11.8722 72.8346 12.1747 72.8346 12.5071C72.8346 12.848 72.8879 13.1495 72.9944 13.4116C73.1031 13.6715 73.2629 13.8761 73.4738 14.0252C73.6869 14.1722 73.9511 14.2457 74.2664 14.2457ZM83.8034 11.1903L83.1258 11.3821C83.0832 11.2692 83.0203 11.1594 82.9372 11.0529C82.8563 10.9442 82.7455 10.8548 82.6048 10.7844C82.4642 10.7141 82.2842 10.679 82.0647 10.679C81.7643 10.679 81.5139 10.7482 81.3137 10.8867C81.1155 11.0231 81.0164 11.1967 81.0164 11.4077C81.0164 11.5952 81.0846 11.7433 81.221 11.8519C81.3573 11.9606 81.5704 12.0511 81.8602 12.1236L82.5889 12.3026C83.0278 12.4091 83.3548 12.5721 83.57 12.7915C83.7852 13.0089 83.8928 13.2891 83.8928 13.6321C83.8928 13.9134 83.8119 14.1648 83.6499 14.3864C83.4901 14.608 83.2664 14.7827 82.9788 14.9105C82.6911 15.0384 82.3566 15.1023 81.9752 15.1023C81.4745 15.1023 81.0601 14.9936 80.732 14.7763C80.4039 14.5589 80.1961 14.2415 80.1088 13.8239L80.8247 13.6449C80.8928 13.9091 81.0218 14.1072 81.2114 14.2393C81.4031 14.3714 81.6535 14.4375 81.9624 14.4375C82.314 14.4375 82.5931 14.3629 82.7998 14.2138C83.0086 14.0625 83.113 13.8814 83.113 13.6705C83.113 13.5 83.0534 13.3572 82.934 13.2422C82.8147 13.125 82.6315 13.0376 82.3843 12.9801L81.5661 12.7884C81.1166 12.6818 80.7863 12.5167 80.5754 12.293C80.3666 12.0671 80.2622 11.7848 80.2622 11.446C80.2622 11.169 80.3399 10.924 80.4955 10.7109C80.6531 10.4979 80.8673 10.3306 81.1379 10.2092C81.4106 10.0877 81.7195 10.027 82.0647 10.027C82.5505 10.027 82.9319 10.1335 83.2089 10.3466C83.488 10.5597 83.6862 10.8409 83.8034 11.1903ZM87.0225 15.1023C86.5794 15.1023 86.1905 14.9968 85.856 14.7859C85.5236 14.5749 85.2637 14.2798 85.0762 13.9006C84.8908 13.5213 84.7981 13.0781 84.7981 12.571C84.7981 12.0597 84.8908 11.6133 85.0762 11.2319C85.2637 10.8505 85.5236 10.5543 85.856 10.3434C86.1905 10.1325 86.5794 10.027 87.0225 10.027C87.4657 10.027 87.8535 10.1325 88.1859 10.3434C88.5204 10.5543 88.7804 10.8505 88.9657 11.2319C89.1532 11.6133 89.247 12.0597 89.247 12.571C89.247 13.0781 89.1532 13.5213 88.9657 13.9006C88.7804 14.2798 88.5204 14.5749 88.1859 14.7859C87.8535 14.9968 87.4657 15.1023 87.0225 15.1023ZM87.0225 14.4247C87.3592 14.4247 87.6362 14.3384 87.8535 14.1658C88.0708 13.9933 88.2317 13.7663 88.3361 13.4851C88.4405 13.2038 88.4927 12.8991 88.4927 12.571C88.4927 12.2429 88.4405 11.9371 88.3361 11.6538C88.2317 11.3704 88.0708 11.1413 87.8535 10.9666C87.6362 10.7919 87.3592 10.7045 87.0225 10.7045C86.6859 10.7045 86.4089 10.7919 86.1916 10.9666C85.9743 11.1413 85.8134 11.3704 85.709 11.6538C85.6046 11.9371 85.5524 12.2429 85.5524 12.571C85.5524 12.8991 85.6046 13.2038 85.709 13.4851C85.8134 13.7663 85.9743 13.9933 86.1916 14.1658C86.4089 14.3384 86.6859 14.4247 87.0225 14.4247ZM92.3927 15.1023C91.9495 15.1023 91.5606 14.9968 91.2261 14.7859C90.8937 14.5749 90.6338 14.2798 90.4463 13.9006C90.2609 13.5213 90.1682 13.0781 90.1682 12.571C90.1682 12.0597 90.2609 11.6133 90.4463 11.2319C90.6338 10.8505 90.8937 10.5543 91.2261 10.3434C91.5606 10.1325 91.9495 10.027 92.3927 10.027C92.8358 10.027 93.2236 10.1325 93.556 10.3434C93.8905 10.5543 94.1505 10.8505 94.3358 11.2319C94.5233 11.6133 94.6171 12.0597 94.6171 12.571C94.6171 13.0781 94.5233 13.5213 94.3358 13.9006C94.1505 14.2798 93.8905 14.5749 93.556 14.7859C93.2236 14.9968 92.8358 15.1023 92.3927 15.1023ZM92.3927 14.4247C92.7293 14.4247 93.0063 14.3384 93.2236 14.1658C93.441 13.9933 93.6018 13.7663 93.7062 13.4851C93.8106 13.2038 93.8628 12.8991 93.8628 12.571C93.8628 12.2429 93.8106 11.9371 93.7062 11.6538C93.6018 11.3704 93.441 11.1413 93.2236 10.9666C93.0063 10.7919 92.7293 10.7045 92.3927 10.7045C92.056 10.7045 91.779 10.7919 91.5617 10.9666C91.3444 11.1413 91.1835 11.3704 91.0791 11.6538C90.9747 11.9371 90.9225 12.2429 90.9225 12.571C90.9225 12.8991 90.9747 13.2038 91.0791 13.4851C91.1835 13.7663 91.3444 13.9933 91.5617 14.1658C91.779 14.3384 92.056 14.4247 92.3927 14.4247ZM96.5227 12.0469V15H95.7685V10.0909H96.4972V10.858H96.5611C96.6761 10.6087 96.8509 10.4084 97.0852 10.2571C97.3196 10.1037 97.6222 10.027 97.9929 10.027C98.3253 10.027 98.6161 10.0952 98.8654 10.2315C99.1147 10.3658 99.3086 10.5703 99.4471 10.8452C99.5856 11.1179 99.6548 11.4631 99.6548 11.8807V15H98.9006V11.9318C98.9006 11.5462 98.8004 11.2457 98.6001 11.0305C98.3999 10.8132 98.125 10.7045 97.7756 10.7045C97.5348 10.7045 97.3196 10.7567 97.13 10.8612C96.9425 10.9656 96.7944 11.1179 96.6857 11.3182C96.5771 11.5185 96.5227 11.7614 96.5227 12.0469ZM105.559 15.1023C105.116 15.1023 104.727 14.9968 104.392 14.7859C104.06 14.5749 103.8 14.2798 103.612 13.9006C103.427 13.5213 103.334 13.0781 103.334 12.571C103.334 12.0597 103.427 11.6133 103.612 11.2319C103.8 10.8505 104.06 10.5543 104.392 10.3434C104.727 10.1325 105.116 10.027 105.559 10.027C106.002 10.027 106.39 10.1325 106.722 10.3434C107.057 10.5543 107.316 10.8505 107.502 11.2319C107.689 11.6133 107.783 12.0597 107.783 12.571C107.783 13.0781 107.689 13.5213 107.502 13.9006C107.316 14.2798 107.057 14.5749 106.722 14.7859C106.39 14.9968 106.002 15.1023 105.559 15.1023ZM105.559 14.4247C105.895 14.4247 106.172 14.3384 106.39 14.1658C106.607 13.9933 106.768 13.7663 106.872 13.4851C106.977 13.2038 107.029 12.8991 107.029 12.571C107.029 12.2429 106.977 11.9371 106.872 11.6538C106.768 11.3704 106.607 11.1413 106.39 10.9666C106.172 10.7919 105.895 10.7045 105.559 10.7045C105.222 10.7045 104.945 10.7919 104.728 10.9666C104.51 11.1413 104.35 11.3704 104.245 11.6538C104.141 11.9371 104.089 12.2429 104.089 12.571C104.089 12.8991 104.141 13.2038 104.245 13.4851C104.35 13.7663 104.51 13.9933 104.728 14.1658C104.945 14.3384 105.222 14.4247 105.559 14.4247ZM109.689 12.0469V15H108.934V10.0909H109.663V10.858H109.727C109.842 10.6087 110.017 10.4084 110.251 10.2571C110.486 10.1037 110.788 10.027 111.159 10.027C111.491 10.027 111.782 10.0952 112.031 10.2315C112.281 10.3658 112.475 10.5703 112.613 10.8452C112.752 11.1179 112.821 11.4631 112.821 11.8807V15H112.067V11.9318C112.067 11.5462 111.966 11.2457 111.766 11.0305C111.566 10.8132 111.291 10.7045 110.942 10.7045C110.701 10.7045 110.486 10.7567 110.296 10.8612C110.108 10.9656 109.96 11.1179 109.852 11.3182C109.743 11.5185 109.689 11.7614 109.689 12.0469Z" fill="white"/>
<defs>
<filter id="filter0_ii_697_21" x="15.5547" y="8.33639" width="22.6562" height="27.3298" filterUnits="userSpaceOnUse" color-interpolation-filters="sRGB">
<feFlood flood-opacity="0" result="BackgroundImageFix"/>
<feBlend mode="normal" in="SourceGraphic" in2="BackgroundImageFix" result="shape"/>
<feColorMatrix in="SourceAlpha" type="matrix" values="0 0 0 0 0 0 0 0 0 0 0 0 0 0 0 0 0 0 127 0" result="hardAlpha"/>
<feOffset dy="-0.161538"/>
<feGaussianBlur stdDeviation="2.15385"/>
<feComposite in2="hardAlpha" operator="arithmetic" k2="-1" k3="1"/>
<feColorMatrix type="matrix" values="0 0 0 0 0 0 0 0 0 0 0 0 0 0 0 0 0 0 0.12 0"/>
<feBlend mode="normal" in2="shape" result="effect1_innerShadow_697_21"/>
<feColorMatrix in="SourceAlpha" type="matrix" values="0 0 0 0 0 0 0 0 0 0 0 0 0 0 0 0 0 0 127 0" result="hardAlpha"/>
<feOffset dy="0.161538"/>
<feGaussianBlur stdDeviation="2.15385"/>
<feComposite in2="hardAlpha" operator="arithmetic" k2="-1" k3="1"/>
<feColorMatrix type="matrix" values="0 0 0 0 1 0 0 0 0 1 0 0 0 0 1 0 0 0 0.25 0"/>
<feBlend mode="normal" in2="effect1_innerShadow_697_21" result="effect2_innerShadow_697_21"/>
</filter>
<filter id="filter1_i_697_21" x="16.0078" y="21.8385" width="16.375" height="13.6662" filterUnits="userSpaceOnUse" color-interpolation-filters="sRGB">
<feFlood flood-opacity="0" result="BackgroundImageFix"/>
<feBlend mode="normal" in="SourceGraphic" in2="BackgroundImageFix" result="shape"/>
<feColorMatrix in="SourceAlpha" type="matrix" values="0 0 0 0 0 0 0 0 0 0 0 0 0 0 0 0 0 0 127 0" result="hardAlpha"/>
<feOffset dy="-0.161538"/>
<feGaussianBlur stdDeviation="2.15385"/>
<feComposite in2="hardAlpha" operator="arithmetic" k2="-1" k3="1"/>
<feColorMatrix type="matrix" values="0 0 0 0 0 0 0 0 0 0 0 0 0 0 0 0 0 0 0.08 0"/>
<feBlend mode="normal" in2="shape" result="effect1_innerShadow_697_21"/>
</filter>
<linearGradient id="paint0_linear_697_21" x1="28.8816" y1="10.8711" x2="9.8793" y2="29.0603" gradientUnits="userSpaceOnUse">
<stop stop-color="#00A0FF"/>
<stop offset="0.007" stop-color="#00A1FF"/>
<stop offset="0.26" stop-color="#00BEFF"/>
<stop offset="0.512" stop-color="#00D2FF"/>
<stop offset="0.76" stop-color="#00DFFF"/>
<stop offset="1" stop-color="#00E3FF"/>
</linearGradient>
<linearGradient id="paint1_linear_697_21" x1="41.9378" y1="23.6693" x2="15.6878" y2="23.6693" gradientUnits="userSpaceOnUse">
<stop stop-color="#FFE000"/>
<stop offset="0.409" stop-color="#FFBD00"/>
<stop offset="0.775" stop-color="#FFA500"/>
<stop offset="1" stop-color="#FF9C00"/>
</linearGradient>
<linearGradient id="paint2_linear_697_21" x1="32.166" y1="26.2689" x2="6.39627" y2="50.9358" gradientUnits="userSpaceOnUse">
<stop stop-color="#FF3A44"/>
<stop offset="1" stop-color="#C31162"/>
</linearGradient>
<linearGradient id="paint3_linear_697_21" x1="13.1475" y1="1.20034" x2="24.6544" y2="12.2151" gradientUnits="userSpaceOnUse">
<stop stop-color="#32A071"/>
<stop offset="0.069" stop-color="#2DA771"/>
<stop offset="0.476" stop-color="#15CF74"/>
<stop offset="0.801" stop-color="#06E775"/>
<stop offset="1" stop-color="#00F076"/>
</linearGradient>
</defs>
</svg>
